<mxfile host="app.diagrams.net" agent="Mozilla/5.0 (Windows NT 10.0; Win64; x64) AppleWebKit/537.36 (KHTML, like Gecko) Chrome/135.0.0.0 Safari/537.36" version="26.2.13" pages="2">
  <diagram name="Atualização" id="gSztaAHtqoWww6EWdy8Z">
    <mxGraphModel dx="1758" dy="1379" grid="1" gridSize="10" guides="1" tooltips="1" connect="1" arrows="1" fold="1" page="1" pageScale="1" pageWidth="827" pageHeight="1169" math="0" shadow="0">
      <root>
        <mxCell id="0" />
        <mxCell id="1" parent="0" />
        <mxCell id="uQKs5as00VJIWnTQG8AP-3" value="MVC" style="shape=folder;fontStyle=1;tabWidth=70;tabHeight=30;tabPosition=left;html=1;boundedLbl=1;labelInHeader=1;container=0;collapsible=0;whiteSpace=wrap;" parent="1" vertex="1">
          <mxGeometry x="1300" y="140" width="950" height="660" as="geometry" />
        </mxCell>
        <mxCell id="uQKs5as00VJIWnTQG8AP-17" value="" style="html=1;strokeColor=none;resizeWidth=1;resizeHeight=1;fillColor=none;part=1;connectable=0;allowArrows=0;deletable=0;whiteSpace=wrap;" parent="1" vertex="1">
          <mxGeometry x="2237.5" y="655" width="282.5" height="203" as="geometry">
            <mxPoint y="30" as="offset" />
          </mxGeometry>
        </mxCell>
        <mxCell id="uQKs5as00VJIWnTQG8AP-38" value="" style="rounded=0;orthogonalLoop=1;jettySize=auto;html=1;endArrow=halfCircle;endFill=0;endSize=6;strokeWidth=1;sketch=0;exitX=-0.001;exitY=0.35;exitDx=0;exitDy=0;exitPerimeter=0;" parent="1" source="uQKs5as00VJIWnTQG8AP-19" target="uQKs5as00VJIWnTQG8AP-40" edge="1">
          <mxGeometry relative="1" as="geometry">
            <mxPoint x="1690" y="376" as="sourcePoint" />
          </mxGeometry>
        </mxCell>
        <mxCell id="uQKs5as00VJIWnTQG8AP-39" value="" style="rounded=0;orthogonalLoop=1;jettySize=auto;html=1;endArrow=oval;endFill=0;sketch=0;sourcePerimeterSpacing=0;targetPerimeterSpacing=0;endSize=10;exitX=1;exitY=0.427;exitDx=0;exitDy=0;exitPerimeter=0;" parent="1" source="uQKs5as00VJIWnTQG8AP-8" target="uQKs5as00VJIWnTQG8AP-40" edge="1">
          <mxGeometry relative="1" as="geometry">
            <mxPoint x="1650" y="335" as="sourcePoint" />
          </mxGeometry>
        </mxCell>
        <mxCell id="uQKs5as00VJIWnTQG8AP-40" value="" style="ellipse;whiteSpace=wrap;html=1;align=center;aspect=fixed;fillColor=none;strokeColor=none;resizable=0;perimeter=centerPerimeter;rotatable=0;allowArrows=0;points=[];outlineConnect=1;" parent="1" vertex="1">
          <mxGeometry x="1775" y="270" width="10" height="10" as="geometry" />
        </mxCell>
        <mxCell id="uQKs5as00VJIWnTQG8AP-41" value="" style="rounded=0;orthogonalLoop=1;jettySize=auto;html=1;endArrow=halfCircle;endFill=0;endSize=6;strokeWidth=1;sketch=0;exitX=1;exitY=0.754;exitDx=0;exitDy=0;exitPerimeter=0;" parent="1" source="uQKs5as00VJIWnTQG8AP-8" target="uQKs5as00VJIWnTQG8AP-43" edge="1">
          <mxGeometry relative="1" as="geometry">
            <mxPoint x="1550" y="424" as="sourcePoint" />
          </mxGeometry>
        </mxCell>
        <mxCell id="uQKs5as00VJIWnTQG8AP-42" value="" style="rounded=0;orthogonalLoop=1;jettySize=auto;html=1;endArrow=oval;endFill=0;sketch=0;sourcePerimeterSpacing=0;targetPerimeterSpacing=0;endSize=10;exitX=0;exitY=0.619;exitDx=0;exitDy=0;exitPerimeter=0;" parent="1" source="uQKs5as00VJIWnTQG8AP-19" target="uQKs5as00VJIWnTQG8AP-43" edge="1">
          <mxGeometry relative="1" as="geometry">
            <mxPoint x="1690" y="426" as="sourcePoint" />
          </mxGeometry>
        </mxCell>
        <mxCell id="uQKs5as00VJIWnTQG8AP-43" value="" style="ellipse;whiteSpace=wrap;html=1;align=center;aspect=fixed;fillColor=none;strokeColor=none;resizable=0;perimeter=centerPerimeter;rotatable=0;allowArrows=0;points=[];outlineConnect=1;" parent="1" vertex="1">
          <mxGeometry x="1775" y="330" width="10" height="10" as="geometry" />
        </mxCell>
        <mxCell id="uQKs5as00VJIWnTQG8AP-44" value="Data object&lt;div&gt;Request&lt;/div&gt;" style="text;html=1;align=center;verticalAlign=middle;resizable=0;points=[];autosize=1;strokeColor=none;fillColor=none;" parent="1" vertex="1">
          <mxGeometry x="1740" y="220" width="80" height="40" as="geometry" />
        </mxCell>
        <mxCell id="uQKs5as00VJIWnTQG8AP-45" value="Data object&lt;div&gt;Response&lt;/div&gt;" style="text;html=1;align=center;verticalAlign=middle;resizable=0;points=[];autosize=1;strokeColor=none;fillColor=none;" parent="1" vertex="1">
          <mxGeometry x="1740" y="352" width="80" height="40" as="geometry" />
        </mxCell>
        <mxCell id="uQKs5as00VJIWnTQG8AP-46" value="" style="rounded=0;orthogonalLoop=1;jettySize=auto;html=1;endArrow=halfCircle;endFill=0;endSize=6;strokeWidth=1;sketch=0;exitX=0.227;exitY=0;exitDx=0;exitDy=0;exitPerimeter=0;" parent="1" source="uQKs5as00VJIWnTQG8AP-5" target="uQKs5as00VJIWnTQG8AP-48" edge="1">
          <mxGeometry relative="1" as="geometry">
            <mxPoint x="1620" y="405" as="sourcePoint" />
          </mxGeometry>
        </mxCell>
        <mxCell id="uQKs5as00VJIWnTQG8AP-47" value="" style="rounded=0;orthogonalLoop=1;jettySize=auto;html=1;endArrow=oval;endFill=0;sketch=0;sourcePerimeterSpacing=0;targetPerimeterSpacing=0;endSize=10;exitX=0.315;exitY=1.003;exitDx=0;exitDy=0;exitPerimeter=0;" parent="1" source="uQKs5as00VJIWnTQG8AP-8" target="uQKs5as00VJIWnTQG8AP-48" edge="1">
          <mxGeometry relative="1" as="geometry">
            <mxPoint x="1580" y="405" as="sourcePoint" />
          </mxGeometry>
        </mxCell>
        <mxCell id="uQKs5as00VJIWnTQG8AP-48" value="" style="ellipse;whiteSpace=wrap;html=1;align=center;aspect=fixed;fillColor=none;strokeColor=none;resizable=0;perimeter=centerPerimeter;rotatable=0;allowArrows=0;points=[];outlineConnect=1;" parent="1" vertex="1">
          <mxGeometry x="1440" y="430" width="10" height="10" as="geometry" />
        </mxCell>
        <mxCell id="uQKs5as00VJIWnTQG8AP-49" value="" style="rounded=0;orthogonalLoop=1;jettySize=auto;html=1;endArrow=halfCircle;endFill=0;endSize=6;strokeWidth=1;sketch=0;exitX=0.564;exitY=1.002;exitDx=0;exitDy=0;exitPerimeter=0;" parent="1" source="uQKs5as00VJIWnTQG8AP-8" target="uQKs5as00VJIWnTQG8AP-51" edge="1">
          <mxGeometry relative="1" as="geometry">
            <mxPoint x="1546" y="381" as="sourcePoint" />
          </mxGeometry>
        </mxCell>
        <mxCell id="uQKs5as00VJIWnTQG8AP-50" value="" style="rounded=0;orthogonalLoop=1;jettySize=auto;html=1;endArrow=oval;endFill=0;sketch=0;sourcePerimeterSpacing=0;targetPerimeterSpacing=0;endSize=10;exitX=0.681;exitY=0;exitDx=0;exitDy=0;exitPerimeter=0;" parent="1" source="uQKs5as00VJIWnTQG8AP-5" target="uQKs5as00VJIWnTQG8AP-51" edge="1">
          <mxGeometry relative="1" as="geometry">
            <mxPoint x="1440" y="495" as="sourcePoint" />
          </mxGeometry>
        </mxCell>
        <mxCell id="uQKs5as00VJIWnTQG8AP-51" value="" style="ellipse;whiteSpace=wrap;html=1;align=center;aspect=fixed;fillColor=none;strokeColor=none;resizable=0;perimeter=centerPerimeter;rotatable=0;allowArrows=0;points=[];outlineConnect=1;" parent="1" vertex="1">
          <mxGeometry x="1540" y="430" width="10" height="10" as="geometry" />
        </mxCell>
        <mxCell id="uQKs5as00VJIWnTQG8AP-52" value="Methods&lt;div&gt;Response&lt;/div&gt;" style="text;html=1;align=center;verticalAlign=middle;resizable=0;points=[];autosize=1;strokeColor=none;fillColor=none;" parent="1" vertex="1">
          <mxGeometry x="1350" y="415" width="80" height="40" as="geometry" />
        </mxCell>
        <mxCell id="uQKs5as00VJIWnTQG8AP-53" value="Methods&lt;div&gt;Request&lt;/div&gt;" style="text;html=1;align=center;verticalAlign=middle;resizable=0;points=[];autosize=1;strokeColor=none;fillColor=none;" parent="1" vertex="1">
          <mxGeometry x="1560" y="415" width="70" height="40" as="geometry" />
        </mxCell>
        <mxCell id="uQKs5as00VJIWnTQG8AP-133" value="" style="group" parent="1" vertex="1" connectable="0">
          <mxGeometry x="1395" y="490" width="220" height="290" as="geometry" />
        </mxCell>
        <mxCell id="uQKs5as00VJIWnTQG8AP-4" value="" style="group" parent="uQKs5as00VJIWnTQG8AP-133" vertex="1" connectable="0">
          <mxGeometry width="220" height="290" as="geometry" />
        </mxCell>
        <mxCell id="uQKs5as00VJIWnTQG8AP-5" value="View" style="shape=umlFrame;whiteSpace=wrap;html=1;pointerEvents=0;shadow=0;" parent="uQKs5as00VJIWnTQG8AP-4" vertex="1">
          <mxGeometry width="220" height="290" as="geometry" />
        </mxCell>
        <mxCell id="uQKs5as00VJIWnTQG8AP-119" value="LoginView" style="swimlane;fontStyle=1;align=center;verticalAlign=top;childLayout=stackLayout;horizontal=1;startSize=26;horizontalStack=0;resizeParent=1;resizeParentMax=0;resizeLast=0;collapsible=1;marginBottom=0;whiteSpace=wrap;html=1;" parent="uQKs5as00VJIWnTQG8AP-133" vertex="1">
          <mxGeometry x="30" y="40" width="160" height="234" as="geometry" />
        </mxCell>
        <mxCell id="uQKs5as00VJIWnTQG8AP-123" value="+ getName(String)" style="text;strokeColor=none;fillColor=none;align=left;verticalAlign=top;spacingLeft=4;spacingRight=4;overflow=hidden;rotatable=0;points=[[0,0.5],[1,0.5]];portConstraint=eastwest;whiteSpace=wrap;html=1;" parent="uQKs5as00VJIWnTQG8AP-119" vertex="1">
          <mxGeometry y="26" width="160" height="26" as="geometry" />
        </mxCell>
        <mxCell id="uQKs5as00VJIWnTQG8AP-124" value="+ getPassword(String)" style="text;strokeColor=none;fillColor=none;align=left;verticalAlign=top;spacingLeft=4;spacingRight=4;overflow=hidden;rotatable=0;points=[[0,0.5],[1,0.5]];portConstraint=eastwest;whiteSpace=wrap;html=1;" parent="uQKs5as00VJIWnTQG8AP-119" vertex="1">
          <mxGeometry y="52" width="160" height="26" as="geometry" />
        </mxCell>
        <mxCell id="uQKs5as00VJIWnTQG8AP-127" value="+ verifyCaptcha(String)" style="text;strokeColor=none;fillColor=none;align=left;verticalAlign=top;spacingLeft=4;spacingRight=4;overflow=hidden;rotatable=0;points=[[0,0.5],[1,0.5]];portConstraint=eastwest;whiteSpace=wrap;html=1;" parent="uQKs5as00VJIWnTQG8AP-119" vertex="1">
          <mxGeometry y="78" width="160" height="26" as="geometry" />
        </mxCell>
        <mxCell id="uQKs5as00VJIWnTQG8AP-128" value="+ showSucces()" style="text;strokeColor=none;fillColor=none;align=left;verticalAlign=top;spacingLeft=4;spacingRight=4;overflow=hidden;rotatable=0;points=[[0,0.5],[1,0.5]];portConstraint=eastwest;whiteSpace=wrap;html=1;" parent="uQKs5as00VJIWnTQG8AP-119" vertex="1">
          <mxGeometry y="104" width="160" height="26" as="geometry" />
        </mxCell>
        <mxCell id="uQKs5as00VJIWnTQG8AP-129" value="+ showFailure()" style="text;strokeColor=none;fillColor=none;align=left;verticalAlign=top;spacingLeft=4;spacingRight=4;overflow=hidden;rotatable=0;points=[[0,0.5],[1,0.5]];portConstraint=eastwest;whiteSpace=wrap;html=1;" parent="uQKs5as00VJIWnTQG8AP-119" vertex="1">
          <mxGeometry y="130" width="160" height="26" as="geometry" />
        </mxCell>
        <mxCell id="uQKs5as00VJIWnTQG8AP-130" value="+ showCaptchaError()" style="text;strokeColor=none;fillColor=none;align=left;verticalAlign=top;spacingLeft=4;spacingRight=4;overflow=hidden;rotatable=0;points=[[0,0.5],[1,0.5]];portConstraint=eastwest;whiteSpace=wrap;html=1;" parent="uQKs5as00VJIWnTQG8AP-119" vertex="1">
          <mxGeometry y="156" width="160" height="26" as="geometry" />
        </mxCell>
        <mxCell id="uQKs5as00VJIWnTQG8AP-131" value="+ registerMessage()" style="text;strokeColor=none;fillColor=none;align=left;verticalAlign=top;spacingLeft=4;spacingRight=4;overflow=hidden;rotatable=0;points=[[0,0.5],[1,0.5]];portConstraint=eastwest;whiteSpace=wrap;html=1;" parent="uQKs5as00VJIWnTQG8AP-119" vertex="1">
          <mxGeometry y="182" width="160" height="26" as="geometry" />
        </mxCell>
        <mxCell id="uQKs5as00VJIWnTQG8AP-132" value="+ loginMessage()" style="text;strokeColor=none;fillColor=none;align=left;verticalAlign=top;spacingLeft=4;spacingRight=4;overflow=hidden;rotatable=0;points=[[0,0.5],[1,0.5]];portConstraint=eastwest;whiteSpace=wrap;html=1;" parent="uQKs5as00VJIWnTQG8AP-119" vertex="1">
          <mxGeometry y="208" width="160" height="26" as="geometry" />
        </mxCell>
        <mxCell id="uQKs5as00VJIWnTQG8AP-136" value="" style="group" parent="1" vertex="1" connectable="0">
          <mxGeometry x="1840" y="197" width="390" height="223" as="geometry" />
        </mxCell>
        <mxCell id="uQKs5as00VJIWnTQG8AP-112" value="UserModel" style="swimlane;fontStyle=1;align=center;verticalAlign=top;childLayout=stackLayout;horizontal=1;startSize=26;horizontalStack=0;resizeParent=1;resizeParentMax=0;resizeLast=0;collapsible=1;marginBottom=0;whiteSpace=wrap;html=1;" parent="uQKs5as00VJIWnTQG8AP-136" vertex="1">
          <mxGeometry x="210" y="44.373999999999995" width="160" height="78.624" as="geometry">
            <mxRectangle x="2230" y="250.004" width="70" height="30" as="alternateBounds" />
          </mxGeometry>
        </mxCell>
        <mxCell id="uQKs5as00VJIWnTQG8AP-113" value="- name: String" style="text;strokeColor=none;fillColor=none;align=left;verticalAlign=top;spacingLeft=4;spacingRight=4;overflow=hidden;rotatable=0;points=[[0,0.5],[1,0.5]];portConstraint=eastwest;whiteSpace=wrap;html=1;" parent="uQKs5as00VJIWnTQG8AP-112" vertex="1">
          <mxGeometry y="26" width="160" height="26.312" as="geometry" />
        </mxCell>
        <mxCell id="uQKs5as00VJIWnTQG8AP-114" value="- password: String" style="text;strokeColor=none;fillColor=none;align=left;verticalAlign=top;spacingLeft=4;spacingRight=4;overflow=hidden;rotatable=0;points=[[0,0.5],[1,0.5]];portConstraint=eastwest;whiteSpace=wrap;html=1;" parent="uQKs5as00VJIWnTQG8AP-112" vertex="1">
          <mxGeometry y="52.312" width="160" height="26.312" as="geometry" />
        </mxCell>
        <mxCell id="uQKs5as00VJIWnTQG8AP-19" value="Models" style="shape=umlFrame;whiteSpace=wrap;html=1;pointerEvents=0;width=60;height=30;" parent="uQKs5as00VJIWnTQG8AP-136" vertex="1">
          <mxGeometry width="390" height="223" as="geometry" />
        </mxCell>
        <mxCell id="uQKs5as00VJIWnTQG8AP-20" value="LoginModel" style="swimlane;fontStyle=1;align=center;verticalAlign=top;childLayout=stackLayout;horizontal=1;startSize=26;horizontalStack=0;resizeParent=1;resizeParentMax=0;resizeLast=0;collapsible=1;marginBottom=0;whiteSpace=wrap;html=1;" parent="uQKs5as00VJIWnTQG8AP-136" vertex="1">
          <mxGeometry x="20" y="44.373999999999995" width="160" height="165.56" as="geometry">
            <mxRectangle x="760" y="300" width="70" height="30" as="alternateBounds" />
          </mxGeometry>
        </mxCell>
        <mxCell id="uQKs5as00VJIWnTQG8AP-21" value="- instance: LoginModel" style="text;strokeColor=none;fillColor=none;align=left;verticalAlign=top;spacingLeft=4;spacingRight=4;overflow=hidden;rotatable=0;points=[[0,0.5],[1,0.5]];portConstraint=eastwest;whiteSpace=wrap;html=1;" parent="uQKs5as00VJIWnTQG8AP-20" vertex="1">
          <mxGeometry y="26" width="160" height="26.312" as="geometry" />
        </mxCell>
        <mxCell id="uQKs5as00VJIWnTQG8AP-118" value="" style="line;strokeWidth=1;fillColor=none;align=left;verticalAlign=middle;spacingTop=-1;spacingLeft=3;spacingRight=3;rotatable=0;labelPosition=right;points=[];portConstraint=eastwest;strokeColor=inherit;" parent="uQKs5as00VJIWnTQG8AP-20" vertex="1">
          <mxGeometry y="52.312" width="160" height="8" as="geometry" />
        </mxCell>
        <mxCell id="uQKs5as00VJIWnTQG8AP-22" value="+ getInstace()" style="text;strokeColor=none;fillColor=none;align=left;verticalAlign=top;spacingLeft=4;spacingRight=4;overflow=hidden;rotatable=0;points=[[0,0.5],[1,0.5]];portConstraint=eastwest;whiteSpace=wrap;html=1;" parent="uQKs5as00VJIWnTQG8AP-20" vertex="1">
          <mxGeometry y="60.312" width="160" height="26.312" as="geometry" />
        </mxCell>
        <mxCell id="uQKs5as00VJIWnTQG8AP-23" value="+ addUser()" style="text;strokeColor=none;fillColor=none;align=left;verticalAlign=top;spacingLeft=4;spacingRight=4;overflow=hidden;rotatable=0;points=[[0,0.5],[1,0.5]];portConstraint=eastwest;whiteSpace=wrap;html=1;" parent="uQKs5as00VJIWnTQG8AP-20" vertex="1">
          <mxGeometry y="86.624" width="160" height="26.312" as="geometry" />
        </mxCell>
        <mxCell id="uQKs5as00VJIWnTQG8AP-24" value="+ verifyLogin(boolean)" style="text;strokeColor=none;fillColor=none;align=left;verticalAlign=top;spacingLeft=4;spacingRight=4;overflow=hidden;rotatable=0;points=[[0,0.5],[1,0.5]];portConstraint=eastwest;whiteSpace=wrap;html=1;" parent="uQKs5as00VJIWnTQG8AP-20" vertex="1">
          <mxGeometry y="112.93599999999999" width="160" height="26.312" as="geometry" />
        </mxCell>
        <mxCell id="uQKs5as00VJIWnTQG8AP-25" value="+ captcha(String)" style="text;strokeColor=none;fillColor=none;align=left;verticalAlign=top;spacingLeft=4;spacingRight=4;overflow=hidden;rotatable=0;points=[[0,0.5],[1,0.5]];portConstraint=eastwest;whiteSpace=wrap;html=1;" parent="uQKs5as00VJIWnTQG8AP-20" vertex="1">
          <mxGeometry y="139.248" width="160" height="26.312" as="geometry" />
        </mxCell>
        <mxCell id="uQKs5as00VJIWnTQG8AP-137" value="" style="group" parent="1" vertex="1" connectable="0">
          <mxGeometry x="1320" y="197" width="400" height="183" as="geometry" />
        </mxCell>
        <mxCell id="uQKs5as00VJIWnTQG8AP-103" value="Register" style="swimlane;fontStyle=1;align=center;verticalAlign=top;childLayout=stackLayout;horizontal=1;startSize=26;horizontalStack=0;resizeParent=1;resizeParentMax=0;resizeLast=0;collapsible=1;marginBottom=0;whiteSpace=wrap;html=1;" parent="uQKs5as00VJIWnTQG8AP-137" vertex="1">
          <mxGeometry x="220" y="43" width="160" height="112" as="geometry" />
        </mxCell>
        <mxCell id="uQKs5as00VJIWnTQG8AP-104" value="- login: LoginModel" style="text;strokeColor=none;fillColor=none;align=left;verticalAlign=top;spacingLeft=4;spacingRight=4;overflow=hidden;rotatable=0;points=[[0,0.5],[1,0.5]];portConstraint=eastwest;whiteSpace=wrap;html=1;" parent="uQKs5as00VJIWnTQG8AP-103" vertex="1">
          <mxGeometry y="26" width="160" height="26" as="geometry" />
        </mxCell>
        <mxCell id="uQKs5as00VJIWnTQG8AP-111" value="- view: LoginView" style="text;strokeColor=none;fillColor=none;align=left;verticalAlign=top;spacingLeft=4;spacingRight=4;overflow=hidden;rotatable=0;points=[[0,0.5],[1,0.5]];portConstraint=eastwest;whiteSpace=wrap;html=1;" parent="uQKs5as00VJIWnTQG8AP-103" vertex="1">
          <mxGeometry y="52" width="160" height="26" as="geometry" />
        </mxCell>
        <mxCell id="uQKs5as00VJIWnTQG8AP-106" value="" style="line;strokeWidth=1;fillColor=none;align=left;verticalAlign=middle;spacingTop=-1;spacingLeft=3;spacingRight=3;rotatable=0;labelPosition=right;points=[];portConstraint=eastwest;strokeColor=inherit;" parent="uQKs5as00VJIWnTQG8AP-103" vertex="1">
          <mxGeometry y="78" width="160" height="8" as="geometry" />
        </mxCell>
        <mxCell id="uQKs5as00VJIWnTQG8AP-107" value="+ registerUser()" style="text;strokeColor=none;fillColor=none;align=left;verticalAlign=top;spacingLeft=4;spacingRight=4;overflow=hidden;rotatable=0;points=[[0,0.5],[1,0.5]];portConstraint=eastwest;whiteSpace=wrap;html=1;" parent="uQKs5as00VJIWnTQG8AP-103" vertex="1">
          <mxGeometry y="86" width="160" height="26" as="geometry" />
        </mxCell>
        <mxCell id="uQKs5as00VJIWnTQG8AP-8" value="Controllers" style="shape=umlFrame;whiteSpace=wrap;html=1;pointerEvents=0;width=70;height=30;" parent="uQKs5as00VJIWnTQG8AP-137" vertex="1">
          <mxGeometry width="400" height="183" as="geometry" />
        </mxCell>
        <mxCell id="uQKs5as00VJIWnTQG8AP-9" value="LoginController" style="swimlane;fontStyle=1;align=center;verticalAlign=top;childLayout=stackLayout;horizontal=1;startSize=26;horizontalStack=0;resizeParent=1;resizeParentMax=0;resizeLast=0;collapsible=1;marginBottom=0;whiteSpace=wrap;html=1;" parent="uQKs5as00VJIWnTQG8AP-137" vertex="1">
          <mxGeometry x="20" y="43" width="160" height="112" as="geometry" />
        </mxCell>
        <mxCell id="uQKs5as00VJIWnTQG8AP-10" value="- model: LoginModel" style="text;strokeColor=none;fillColor=none;align=left;verticalAlign=top;spacingLeft=4;spacingRight=4;overflow=hidden;rotatable=0;points=[[0,0.5],[1,0.5]];portConstraint=eastwest;whiteSpace=wrap;html=1;" parent="uQKs5as00VJIWnTQG8AP-9" vertex="1">
          <mxGeometry y="26" width="160" height="26" as="geometry" />
        </mxCell>
        <mxCell id="uQKs5as00VJIWnTQG8AP-11" value="- view: LoginView" style="text;strokeColor=none;fillColor=none;align=left;verticalAlign=top;spacingLeft=4;spacingRight=4;overflow=hidden;rotatable=0;points=[[0,0.5],[1,0.5]];portConstraint=eastwest;whiteSpace=wrap;html=1;" parent="uQKs5as00VJIWnTQG8AP-9" vertex="1">
          <mxGeometry y="52" width="160" height="26" as="geometry" />
        </mxCell>
        <mxCell id="uQKs5as00VJIWnTQG8AP-12" value="" style="line;strokeWidth=1;fillColor=none;align=left;verticalAlign=middle;spacingTop=-1;spacingLeft=3;spacingRight=3;rotatable=0;labelPosition=right;points=[];portConstraint=eastwest;strokeColor=inherit;" parent="uQKs5as00VJIWnTQG8AP-9" vertex="1">
          <mxGeometry y="78" width="160" height="8" as="geometry" />
        </mxCell>
        <mxCell id="uQKs5as00VJIWnTQG8AP-13" value="+ effectLogin()" style="text;strokeColor=none;fillColor=none;align=left;verticalAlign=top;spacingLeft=4;spacingRight=4;overflow=hidden;rotatable=0;points=[[0,0.5],[1,0.5]];portConstraint=eastwest;whiteSpace=wrap;html=1;" parent="uQKs5as00VJIWnTQG8AP-9" vertex="1">
          <mxGeometry y="86" width="160" height="26" as="geometry" />
        </mxCell>
      </root>
    </mxGraphModel>
  </diagram>
  <diagram id="NST61jVsLX-RqxfI6jee" name="Página-2">
    <mxGraphModel dx="-304" dy="2330" grid="1" gridSize="10" guides="1" tooltips="1" connect="1" arrows="1" fold="1" page="1" pageScale="1" pageWidth="827" pageHeight="1169" math="0" shadow="0">
      <root>
        <mxCell id="0" />
        <mxCell id="1" parent="0" />
        <mxCell id="15b6Q68gZmkn_3KFMDJp-36" style="edgeStyle=orthogonalEdgeStyle;rounded=0;orthogonalLoop=1;jettySize=auto;html=1;entryX=0;entryY=0.5;entryDx=0;entryDy=0;endArrow=none;startFill=0;dashed=1;" edge="1" parent="1" source="MBcVHaymGr2ra87SHPn6-1" target="15b6Q68gZmkn_3KFMDJp-34">
          <mxGeometry relative="1" as="geometry">
            <Array as="points">
              <mxPoint x="2960" y="310" />
              <mxPoint x="3350" y="310" />
            </Array>
          </mxGeometry>
        </mxCell>
        <mxCell id="15b6Q68gZmkn_3KFMDJp-51" style="edgeStyle=orthogonalEdgeStyle;rounded=0;orthogonalLoop=1;jettySize=auto;html=1;dashed=1;" edge="1" parent="1" source="MBcVHaymGr2ra87SHPn6-1" target="t2tlnlJJV4CsSl2KhNDb-21">
          <mxGeometry relative="1" as="geometry">
            <Array as="points">
              <mxPoint x="2960" y="500" />
              <mxPoint x="4010" y="500" />
            </Array>
          </mxGeometry>
        </mxCell>
        <mxCell id="MBcVHaymGr2ra87SHPn6-1" value="Nike" style="swimlane;fontStyle=1;align=center;verticalAlign=top;childLayout=stackLayout;horizontal=1;startSize=26;horizontalStack=0;resizeParent=1;resizeParentMax=0;resizeLast=0;collapsible=1;marginBottom=0;whiteSpace=wrap;html=1;" vertex="1" parent="1">
          <mxGeometry x="2880" y="360.004" width="160" height="56" as="geometry">
            <mxRectangle x="2230" y="250.004" width="70" height="30" as="alternateBounds" />
          </mxGeometry>
        </mxCell>
        <mxCell id="t2tlnlJJV4CsSl2KhNDb-7" value="+ ICamisa camisa();" style="text;html=1;strokeColor=none;fillColor=none;align=left;verticalAlign=middle;spacingLeft=4;spacingRight=4;overflow=hidden;rotatable=0;points=[[0,0.5],[1,0.5]];portConstraint=eastwest;whiteSpace=wrap;" vertex="1" parent="MBcVHaymGr2ra87SHPn6-1">
          <mxGeometry y="26" width="160" height="30" as="geometry" />
        </mxCell>
        <mxCell id="15b6Q68gZmkn_3KFMDJp-57" style="edgeStyle=orthogonalEdgeStyle;rounded=0;orthogonalLoop=1;jettySize=auto;html=1;endArrow=none;startFill=0;exitX=0;exitY=0.5;exitDx=0;exitDy=0;" edge="1" parent="1" source="15b6Q68gZmkn_3KFMDJp-58" target="15b6Q68gZmkn_3KFMDJp-16">
          <mxGeometry relative="1" as="geometry">
            <Array as="points">
              <mxPoint x="3350" y="70" />
              <mxPoint x="3170" y="70" />
            </Array>
          </mxGeometry>
        </mxCell>
        <mxCell id="t2tlnlJJV4CsSl2KhNDb-3" value="&amp;lt;&amp;lt;interface&amp;gt;&amp;gt;&lt;br&gt;&lt;b&gt;IFabrica&lt;/b&gt;" style="swimlane;fontStyle=0;align=center;verticalAlign=top;childLayout=stackLayout;horizontal=1;startSize=40;horizontalStack=0;resizeParent=1;resizeParentMax=0;resizeLast=0;collapsible=0;marginBottom=0;html=1;whiteSpace=wrap;" vertex="1" parent="1">
          <mxGeometry x="3280" y="140" width="140" height="70" as="geometry" />
        </mxCell>
        <mxCell id="t2tlnlJJV4CsSl2KhNDb-4" value="+ ICamisa camisa();" style="text;html=1;strokeColor=none;fillColor=none;align=left;verticalAlign=middle;spacingLeft=4;spacingRight=4;overflow=hidden;rotatable=0;points=[[0,0.5],[1,0.5]];portConstraint=eastwest;whiteSpace=wrap;" vertex="1" parent="t2tlnlJJV4CsSl2KhNDb-3">
          <mxGeometry y="40" width="140" height="30" as="geometry" />
        </mxCell>
        <mxCell id="15b6Q68gZmkn_3KFMDJp-39" style="edgeStyle=orthogonalEdgeStyle;rounded=0;orthogonalLoop=1;jettySize=auto;html=1;entryX=0;entryY=0.5;entryDx=0;entryDy=0;endArrow=none;startFill=0;dashed=1;" edge="1" parent="1" source="t2tlnlJJV4CsSl2KhNDb-5" target="15b6Q68gZmkn_3KFMDJp-34">
          <mxGeometry relative="1" as="geometry">
            <Array as="points">
              <mxPoint x="3160" y="310" />
              <mxPoint x="3350" y="310" />
            </Array>
          </mxGeometry>
        </mxCell>
        <mxCell id="15b6Q68gZmkn_3KFMDJp-53" style="edgeStyle=orthogonalEdgeStyle;rounded=0;orthogonalLoop=1;jettySize=auto;html=1;dashed=1;endArrow=classic;startFill=0;endFill=1;" edge="1" parent="1" source="t2tlnlJJV4CsSl2KhNDb-5" target="t2tlnlJJV4CsSl2KhNDb-24">
          <mxGeometry relative="1" as="geometry">
            <Array as="points">
              <mxPoint x="3160" y="520" />
              <mxPoint x="4200" y="520" />
            </Array>
          </mxGeometry>
        </mxCell>
        <mxCell id="t2tlnlJJV4CsSl2KhNDb-5" value="Adidas" style="swimlane;fontStyle=1;align=center;verticalAlign=top;childLayout=stackLayout;horizontal=1;startSize=26;horizontalStack=0;resizeParent=1;resizeParentMax=0;resizeLast=0;collapsible=1;marginBottom=0;whiteSpace=wrap;html=1;" vertex="1" parent="1">
          <mxGeometry x="3080" y="360.004" width="160" height="56" as="geometry">
            <mxRectangle x="2230" y="250.004" width="70" height="30" as="alternateBounds" />
          </mxGeometry>
        </mxCell>
        <mxCell id="t2tlnlJJV4CsSl2KhNDb-8" value="+ ICamisa camisa();" style="text;html=1;strokeColor=none;fillColor=none;align=left;verticalAlign=middle;spacingLeft=4;spacingRight=4;overflow=hidden;rotatable=0;points=[[0,0.5],[1,0.5]];portConstraint=eastwest;whiteSpace=wrap;" vertex="1" parent="t2tlnlJJV4CsSl2KhNDb-5">
          <mxGeometry y="26" width="160" height="30" as="geometry" />
        </mxCell>
        <mxCell id="15b6Q68gZmkn_3KFMDJp-40" style="edgeStyle=orthogonalEdgeStyle;rounded=0;orthogonalLoop=1;jettySize=auto;html=1;entryX=0;entryY=0.5;entryDx=0;entryDy=0;endArrow=none;startFill=0;dashed=1;" edge="1" parent="1" source="t2tlnlJJV4CsSl2KhNDb-10" target="15b6Q68gZmkn_3KFMDJp-34">
          <mxGeometry relative="1" as="geometry" />
        </mxCell>
        <mxCell id="15b6Q68gZmkn_3KFMDJp-54" style="edgeStyle=orthogonalEdgeStyle;rounded=0;orthogonalLoop=1;jettySize=auto;html=1;dashed=1;" edge="1" parent="1" source="t2tlnlJJV4CsSl2KhNDb-10" target="t2tlnlJJV4CsSl2KhNDb-16">
          <mxGeometry relative="1" as="geometry">
            <Array as="points">
              <mxPoint x="3350" y="540" />
              <mxPoint x="4390" y="540" />
            </Array>
          </mxGeometry>
        </mxCell>
        <mxCell id="t2tlnlJJV4CsSl2KhNDb-10" value="Puma" style="swimlane;fontStyle=1;align=center;verticalAlign=top;childLayout=stackLayout;horizontal=1;startSize=26;horizontalStack=0;resizeParent=1;resizeParentMax=0;resizeLast=0;collapsible=1;marginBottom=0;whiteSpace=wrap;html=1;" vertex="1" parent="1">
          <mxGeometry x="3270" y="360.004" width="160" height="56" as="geometry">
            <mxRectangle x="2230" y="250.004" width="70" height="30" as="alternateBounds" />
          </mxGeometry>
        </mxCell>
        <mxCell id="t2tlnlJJV4CsSl2KhNDb-11" value="+ ICamisa camisa();" style="text;html=1;strokeColor=none;fillColor=none;align=left;verticalAlign=middle;spacingLeft=4;spacingRight=4;overflow=hidden;rotatable=0;points=[[0,0.5],[1,0.5]];portConstraint=eastwest;whiteSpace=wrap;" vertex="1" parent="t2tlnlJJV4CsSl2KhNDb-10">
          <mxGeometry y="26" width="160" height="30" as="geometry" />
        </mxCell>
        <mxCell id="15b6Q68gZmkn_3KFMDJp-41" style="edgeStyle=orthogonalEdgeStyle;rounded=0;orthogonalLoop=1;jettySize=auto;html=1;entryX=0;entryY=0.5;entryDx=0;entryDy=0;endArrow=none;startFill=0;dashed=1;" edge="1" parent="1" source="t2tlnlJJV4CsSl2KhNDb-12" target="15b6Q68gZmkn_3KFMDJp-34">
          <mxGeometry relative="1" as="geometry">
            <Array as="points">
              <mxPoint x="3540" y="310" />
              <mxPoint x="3350" y="310" />
            </Array>
          </mxGeometry>
        </mxCell>
        <mxCell id="15b6Q68gZmkn_3KFMDJp-55" style="edgeStyle=orthogonalEdgeStyle;rounded=0;orthogonalLoop=1;jettySize=auto;html=1;dashed=1;" edge="1" parent="1" source="t2tlnlJJV4CsSl2KhNDb-12" target="t2tlnlJJV4CsSl2KhNDb-26">
          <mxGeometry relative="1" as="geometry">
            <Array as="points">
              <mxPoint x="3540" y="560" />
              <mxPoint x="4590" y="560" />
            </Array>
          </mxGeometry>
        </mxCell>
        <mxCell id="t2tlnlJJV4CsSl2KhNDb-12" value="Umbro" style="swimlane;fontStyle=1;align=center;verticalAlign=top;childLayout=stackLayout;horizontal=1;startSize=26;horizontalStack=0;resizeParent=1;resizeParentMax=0;resizeLast=0;collapsible=1;marginBottom=0;whiteSpace=wrap;html=1;" vertex="1" parent="1">
          <mxGeometry x="3460" y="360.004" width="160" height="56" as="geometry">
            <mxRectangle x="2230" y="250.004" width="70" height="30" as="alternateBounds" />
          </mxGeometry>
        </mxCell>
        <mxCell id="t2tlnlJJV4CsSl2KhNDb-13" value="+ ICamisa camisa();" style="text;html=1;strokeColor=none;fillColor=none;align=left;verticalAlign=middle;spacingLeft=4;spacingRight=4;overflow=hidden;rotatable=0;points=[[0,0.5],[1,0.5]];portConstraint=eastwest;whiteSpace=wrap;" vertex="1" parent="t2tlnlJJV4CsSl2KhNDb-12">
          <mxGeometry y="26" width="160" height="30" as="geometry" />
        </mxCell>
        <mxCell id="15b6Q68gZmkn_3KFMDJp-42" style="edgeStyle=orthogonalEdgeStyle;rounded=0;orthogonalLoop=1;jettySize=auto;html=1;entryX=0;entryY=0.5;entryDx=0;entryDy=0;endArrow=none;endFill=1;startFill=0;dashed=1;" edge="1" parent="1" source="t2tlnlJJV4CsSl2KhNDb-14" target="15b6Q68gZmkn_3KFMDJp-34">
          <mxGeometry relative="1" as="geometry">
            <Array as="points">
              <mxPoint x="3740" y="310" />
              <mxPoint x="3350" y="310" />
            </Array>
          </mxGeometry>
        </mxCell>
        <mxCell id="15b6Q68gZmkn_3KFMDJp-56" style="edgeStyle=orthogonalEdgeStyle;rounded=0;orthogonalLoop=1;jettySize=auto;html=1;dashed=1;" edge="1" parent="1" source="t2tlnlJJV4CsSl2KhNDb-14" target="t2tlnlJJV4CsSl2KhNDb-28">
          <mxGeometry relative="1" as="geometry">
            <Array as="points">
              <mxPoint x="3740" y="580" />
              <mxPoint x="4790" y="580" />
            </Array>
          </mxGeometry>
        </mxCell>
        <mxCell id="t2tlnlJJV4CsSl2KhNDb-14" value="Kappa" style="swimlane;fontStyle=1;align=center;verticalAlign=top;childLayout=stackLayout;horizontal=1;startSize=26;horizontalStack=0;resizeParent=1;resizeParentMax=0;resizeLast=0;collapsible=1;marginBottom=0;whiteSpace=wrap;html=1;" vertex="1" parent="1">
          <mxGeometry x="3660" y="360.004" width="160" height="56" as="geometry">
            <mxRectangle x="2230" y="250.004" width="70" height="30" as="alternateBounds" />
          </mxGeometry>
        </mxCell>
        <mxCell id="t2tlnlJJV4CsSl2KhNDb-15" value="+ ICamisa camisa();" style="text;html=1;strokeColor=none;fillColor=none;align=left;verticalAlign=middle;spacingLeft=4;spacingRight=4;overflow=hidden;rotatable=0;points=[[0,0.5],[1,0.5]];portConstraint=eastwest;whiteSpace=wrap;" vertex="1" parent="t2tlnlJJV4CsSl2KhNDb-14">
          <mxGeometry y="26" width="160" height="30" as="geometry" />
        </mxCell>
        <mxCell id="15b6Q68gZmkn_3KFMDJp-46" style="edgeStyle=orthogonalEdgeStyle;rounded=0;orthogonalLoop=1;jettySize=auto;html=1;endArrow=none;startFill=0;entryX=0;entryY=0.5;entryDx=0;entryDy=0;dashed=1;" edge="1" parent="1" source="t2tlnlJJV4CsSl2KhNDb-16" target="15b6Q68gZmkn_3KFMDJp-44">
          <mxGeometry relative="1" as="geometry">
            <mxPoint x="4190" y="350" as="sourcePoint" />
            <Array as="points">
              <mxPoint x="4390" y="350" />
              <mxPoint x="4390" y="350" />
            </Array>
          </mxGeometry>
        </mxCell>
        <mxCell id="t2tlnlJJV4CsSl2KhNDb-16" value="CamisaBotafogo" style="swimlane;fontStyle=1;align=center;verticalAlign=top;childLayout=stackLayout;horizontal=1;startSize=26;horizontalStack=0;resizeParent=1;resizeParentMax=0;resizeLast=0;collapsible=1;marginBottom=0;whiteSpace=wrap;html=1;" vertex="1" parent="1">
          <mxGeometry x="4310" y="360.004" width="160" height="56" as="geometry">
            <mxRectangle x="2230" y="250.004" width="70" height="30" as="alternateBounds" />
          </mxGeometry>
        </mxCell>
        <mxCell id="t2tlnlJJV4CsSl2KhNDb-17" value="+ informacoesCamisa();" style="text;html=1;strokeColor=none;fillColor=none;align=left;verticalAlign=middle;spacingLeft=4;spacingRight=4;overflow=hidden;rotatable=0;points=[[0,0.5],[1,0.5]];portConstraint=eastwest;whiteSpace=wrap;" vertex="1" parent="t2tlnlJJV4CsSl2KhNDb-16">
          <mxGeometry y="26" width="160" height="30" as="geometry" />
        </mxCell>
        <mxCell id="t2tlnlJJV4CsSl2KhNDb-18" value="&amp;lt;&amp;lt;interface&amp;gt;&amp;gt;&lt;br&gt;&lt;b&gt;ICamisa&lt;/b&gt;" style="swimlane;fontStyle=0;align=center;verticalAlign=top;childLayout=stackLayout;horizontal=1;startSize=40;horizontalStack=0;resizeParent=1;resizeParentMax=0;resizeLast=0;collapsible=0;marginBottom=0;html=1;whiteSpace=wrap;" vertex="1" parent="1">
          <mxGeometry x="4320" y="150" width="140" height="70" as="geometry" />
        </mxCell>
        <mxCell id="t2tlnlJJV4CsSl2KhNDb-20" value="+ informacoesCamisa();" style="text;html=1;strokeColor=none;fillColor=none;align=left;verticalAlign=middle;spacingLeft=4;spacingRight=4;overflow=hidden;rotatable=0;points=[[0,0.5],[1,0.5]];portConstraint=eastwest;whiteSpace=wrap;" vertex="1" parent="t2tlnlJJV4CsSl2KhNDb-18">
          <mxGeometry y="40" width="140" height="30" as="geometry" />
        </mxCell>
        <mxCell id="15b6Q68gZmkn_3KFMDJp-47" style="edgeStyle=orthogonalEdgeStyle;rounded=0;orthogonalLoop=1;jettySize=auto;html=1;endArrow=none;startFill=0;entryX=0;entryY=0.5;entryDx=0;entryDy=0;dashed=1;" edge="1" parent="1" source="t2tlnlJJV4CsSl2KhNDb-21" target="15b6Q68gZmkn_3KFMDJp-44">
          <mxGeometry relative="1" as="geometry">
            <Array as="points">
              <mxPoint x="4010" y="310" />
            </Array>
          </mxGeometry>
        </mxCell>
        <mxCell id="t2tlnlJJV4CsSl2KhNDb-21" value="CamisaBrasil" style="swimlane;fontStyle=1;align=center;verticalAlign=top;childLayout=stackLayout;horizontal=1;startSize=26;horizontalStack=0;resizeParent=1;resizeParentMax=0;resizeLast=0;collapsible=1;marginBottom=0;whiteSpace=wrap;html=1;" vertex="1" parent="1">
          <mxGeometry x="3930" y="360.004" width="160" height="56" as="geometry">
            <mxRectangle x="2230" y="250.004" width="70" height="30" as="alternateBounds" />
          </mxGeometry>
        </mxCell>
        <mxCell id="t2tlnlJJV4CsSl2KhNDb-22" value="+ informacoesCamisa();" style="text;html=1;strokeColor=none;fillColor=none;align=left;verticalAlign=middle;spacingLeft=4;spacingRight=4;overflow=hidden;rotatable=0;points=[[0,0.5],[1,0.5]];portConstraint=eastwest;whiteSpace=wrap;" vertex="1" parent="t2tlnlJJV4CsSl2KhNDb-21">
          <mxGeometry y="26" width="160" height="30" as="geometry" />
        </mxCell>
        <mxCell id="15b6Q68gZmkn_3KFMDJp-48" style="edgeStyle=orthogonalEdgeStyle;rounded=0;orthogonalLoop=1;jettySize=auto;html=1;endArrow=none;startFill=0;entryX=0;entryY=0.5;entryDx=0;entryDy=0;dashed=1;" edge="1" parent="1" source="t2tlnlJJV4CsSl2KhNDb-24" target="15b6Q68gZmkn_3KFMDJp-44">
          <mxGeometry relative="1" as="geometry">
            <Array as="points">
              <mxPoint x="4200" y="310" />
            </Array>
          </mxGeometry>
        </mxCell>
        <mxCell id="t2tlnlJJV4CsSl2KhNDb-24" value="CamisaFlamengo" style="swimlane;fontStyle=1;align=center;verticalAlign=top;childLayout=stackLayout;horizontal=1;startSize=26;horizontalStack=0;resizeParent=1;resizeParentMax=0;resizeLast=0;collapsible=1;marginBottom=0;whiteSpace=wrap;html=1;" vertex="1" parent="1">
          <mxGeometry x="4120" y="360.004" width="160" height="56" as="geometry">
            <mxRectangle x="2230" y="250.004" width="70" height="30" as="alternateBounds" />
          </mxGeometry>
        </mxCell>
        <mxCell id="t2tlnlJJV4CsSl2KhNDb-25" value="+ informacoesCamisa();" style="text;html=1;strokeColor=none;fillColor=none;align=left;verticalAlign=middle;spacingLeft=4;spacingRight=4;overflow=hidden;rotatable=0;points=[[0,0.5],[1,0.5]];portConstraint=eastwest;whiteSpace=wrap;" vertex="1" parent="t2tlnlJJV4CsSl2KhNDb-24">
          <mxGeometry y="26" width="160" height="30" as="geometry" />
        </mxCell>
        <mxCell id="15b6Q68gZmkn_3KFMDJp-49" style="edgeStyle=orthogonalEdgeStyle;rounded=0;orthogonalLoop=1;jettySize=auto;html=1;endArrow=none;startFill=0;entryX=0;entryY=0.5;entryDx=0;entryDy=0;dashed=1;" edge="1" parent="1" source="t2tlnlJJV4CsSl2KhNDb-26" target="15b6Q68gZmkn_3KFMDJp-44">
          <mxGeometry relative="1" as="geometry">
            <Array as="points">
              <mxPoint x="4590" y="310" />
            </Array>
          </mxGeometry>
        </mxCell>
        <mxCell id="t2tlnlJJV4CsSl2KhNDb-26" value="CamisaFluminense" style="swimlane;fontStyle=1;align=center;verticalAlign=top;childLayout=stackLayout;horizontal=1;startSize=26;horizontalStack=0;resizeParent=1;resizeParentMax=0;resizeLast=0;collapsible=1;marginBottom=0;whiteSpace=wrap;html=1;" vertex="1" parent="1">
          <mxGeometry x="4510" y="360.004" width="160" height="56" as="geometry">
            <mxRectangle x="2230" y="250.004" width="70" height="30" as="alternateBounds" />
          </mxGeometry>
        </mxCell>
        <mxCell id="t2tlnlJJV4CsSl2KhNDb-27" value="+ informacoesCamisa();" style="text;html=1;strokeColor=none;fillColor=none;align=left;verticalAlign=middle;spacingLeft=4;spacingRight=4;overflow=hidden;rotatable=0;points=[[0,0.5],[1,0.5]];portConstraint=eastwest;whiteSpace=wrap;" vertex="1" parent="t2tlnlJJV4CsSl2KhNDb-26">
          <mxGeometry y="26" width="160" height="30" as="geometry" />
        </mxCell>
        <mxCell id="15b6Q68gZmkn_3KFMDJp-50" style="edgeStyle=orthogonalEdgeStyle;rounded=0;orthogonalLoop=1;jettySize=auto;html=1;entryX=0;entryY=0.5;entryDx=0;entryDy=0;endArrow=none;startFill=0;dashed=1;" edge="1" parent="1" source="t2tlnlJJV4CsSl2KhNDb-28" target="15b6Q68gZmkn_3KFMDJp-44">
          <mxGeometry relative="1" as="geometry">
            <Array as="points">
              <mxPoint x="4790" y="310" />
            </Array>
          </mxGeometry>
        </mxCell>
        <mxCell id="t2tlnlJJV4CsSl2KhNDb-28" value="CamisaVasco" style="swimlane;fontStyle=1;align=center;verticalAlign=top;childLayout=stackLayout;horizontal=1;startSize=26;horizontalStack=0;resizeParent=1;resizeParentMax=0;resizeLast=0;collapsible=1;marginBottom=0;whiteSpace=wrap;html=1;" vertex="1" parent="1">
          <mxGeometry x="4710" y="360.004" width="160" height="56" as="geometry">
            <mxRectangle x="2230" y="250.004" width="70" height="30" as="alternateBounds" />
          </mxGeometry>
        </mxCell>
        <mxCell id="t2tlnlJJV4CsSl2KhNDb-29" value="+ informacoesCamisa();" style="text;html=1;strokeColor=none;fillColor=none;align=left;verticalAlign=middle;spacingLeft=4;spacingRight=4;overflow=hidden;rotatable=0;points=[[0,0.5],[1,0.5]];portConstraint=eastwest;whiteSpace=wrap;" vertex="1" parent="t2tlnlJJV4CsSl2KhNDb-28">
          <mxGeometry y="26" width="160" height="30" as="geometry" />
        </mxCell>
        <mxCell id="15b6Q68gZmkn_3KFMDJp-65" style="edgeStyle=orthogonalEdgeStyle;rounded=0;orthogonalLoop=1;jettySize=auto;html=1;endArrow=none;startFill=0;" edge="1" parent="1" source="15b6Q68gZmkn_3KFMDJp-11" target="15b6Q68gZmkn_3KFMDJp-61">
          <mxGeometry relative="1" as="geometry">
            <Array as="points">
              <mxPoint x="3520" y="-160" />
            </Array>
          </mxGeometry>
        </mxCell>
        <mxCell id="15b6Q68gZmkn_3KFMDJp-11" value="EscolhaView" style="swimlane;fontStyle=1;align=center;verticalAlign=top;childLayout=stackLayout;horizontal=1;startSize=26;horizontalStack=0;resizeParent=1;resizeParentMax=0;resizeLast=0;collapsible=1;marginBottom=0;whiteSpace=wrap;html=1;" vertex="1" parent="1">
          <mxGeometry x="3440" y="-100" width="160" height="86" as="geometry" />
        </mxCell>
        <mxCell id="15b6Q68gZmkn_3KFMDJp-12" value="+ scan: Scanner" style="text;strokeColor=none;fillColor=none;align=left;verticalAlign=top;spacingLeft=4;spacingRight=4;overflow=hidden;rotatable=0;points=[[0,0.5],[1,0.5]];portConstraint=eastwest;whiteSpace=wrap;html=1;" vertex="1" parent="15b6Q68gZmkn_3KFMDJp-11">
          <mxGeometry y="26" width="160" height="26" as="geometry" />
        </mxCell>
        <mxCell id="15b6Q68gZmkn_3KFMDJp-13" value="" style="line;strokeWidth=1;fillColor=none;align=left;verticalAlign=middle;spacingTop=-1;spacingLeft=3;spacingRight=3;rotatable=0;labelPosition=right;points=[];portConstraint=eastwest;strokeColor=inherit;" vertex="1" parent="15b6Q68gZmkn_3KFMDJp-11">
          <mxGeometry y="52" width="160" height="8" as="geometry" />
        </mxCell>
        <mxCell id="15b6Q68gZmkn_3KFMDJp-15" value="+ getTime();" style="text;strokeColor=none;fillColor=none;align=left;verticalAlign=top;spacingLeft=4;spacingRight=4;overflow=hidden;rotatable=0;points=[[0,0.5],[1,0.5]];portConstraint=eastwest;whiteSpace=wrap;html=1;" vertex="1" parent="15b6Q68gZmkn_3KFMDJp-11">
          <mxGeometry y="60" width="160" height="26" as="geometry" />
        </mxCell>
        <mxCell id="15b6Q68gZmkn_3KFMDJp-16" value="EscolhaController" style="swimlane;fontStyle=1;align=center;verticalAlign=top;childLayout=stackLayout;horizontal=1;startSize=26;horizontalStack=0;resizeParent=1;resizeParentMax=0;resizeLast=0;collapsible=1;marginBottom=0;whiteSpace=wrap;html=1;" vertex="1" parent="1">
          <mxGeometry x="3090" y="-100" width="160" height="86" as="geometry" />
        </mxCell>
        <mxCell id="15b6Q68gZmkn_3KFMDJp-17" value="+ view: EscolhaView" style="text;strokeColor=none;fillColor=none;align=left;verticalAlign=top;spacingLeft=4;spacingRight=4;overflow=hidden;rotatable=0;points=[[0,0.5],[1,0.5]];portConstraint=eastwest;whiteSpace=wrap;html=1;" vertex="1" parent="15b6Q68gZmkn_3KFMDJp-16">
          <mxGeometry y="26" width="160" height="26" as="geometry" />
        </mxCell>
        <mxCell id="15b6Q68gZmkn_3KFMDJp-18" value="" style="line;strokeWidth=1;fillColor=none;align=left;verticalAlign=middle;spacingTop=-1;spacingLeft=3;spacingRight=3;rotatable=0;labelPosition=right;points=[];portConstraint=eastwest;strokeColor=inherit;" vertex="1" parent="15b6Q68gZmkn_3KFMDJp-16">
          <mxGeometry y="52" width="160" height="8" as="geometry" />
        </mxCell>
        <mxCell id="15b6Q68gZmkn_3KFMDJp-19" value="+ escolhaDeTime();" style="text;strokeColor=none;fillColor=none;align=left;verticalAlign=top;spacingLeft=4;spacingRight=4;overflow=hidden;rotatable=0;points=[[0,0.5],[1,0.5]];portConstraint=eastwest;whiteSpace=wrap;html=1;" vertex="1" parent="15b6Q68gZmkn_3KFMDJp-16">
          <mxGeometry y="60" width="160" height="26" as="geometry" />
        </mxCell>
        <mxCell id="15b6Q68gZmkn_3KFMDJp-20" value="Main" style="swimlane;fontStyle=1;align=center;verticalAlign=top;childLayout=stackLayout;horizontal=1;startSize=26;horizontalStack=0;resizeParent=1;resizeParentMax=0;resizeLast=0;collapsible=1;marginBottom=0;whiteSpace=wrap;html=1;" vertex="1" parent="1">
          <mxGeometry x="3255" y="-360" width="190" height="80" as="geometry" />
        </mxCell>
        <mxCell id="15b6Q68gZmkn_3KFMDJp-21" value="+ view: EscolhaView" style="text;strokeColor=none;fillColor=none;align=left;verticalAlign=top;spacingLeft=4;spacingRight=4;overflow=hidden;rotatable=0;points=[[0,0.5],[1,0.5]];portConstraint=eastwest;whiteSpace=wrap;html=1;" vertex="1" parent="15b6Q68gZmkn_3KFMDJp-20">
          <mxGeometry y="26" width="190" height="26" as="geometry" />
        </mxCell>
        <mxCell id="15b6Q68gZmkn_3KFMDJp-24" value="+ controller: EscolhaController" style="text;strokeColor=none;fillColor=none;align=left;verticalAlign=top;spacingLeft=4;spacingRight=4;overflow=hidden;rotatable=0;points=[[0,0.5],[1,0.5]];portConstraint=eastwest;whiteSpace=wrap;html=1;" vertex="1" parent="15b6Q68gZmkn_3KFMDJp-20">
          <mxGeometry y="52" width="190" height="28" as="geometry" />
        </mxCell>
        <mxCell id="15b6Q68gZmkn_3KFMDJp-35" style="edgeStyle=orthogonalEdgeStyle;rounded=0;orthogonalLoop=1;jettySize=auto;html=1;dashed=1;" edge="1" parent="1" source="15b6Q68gZmkn_3KFMDJp-34" target="t2tlnlJJV4CsSl2KhNDb-3">
          <mxGeometry relative="1" as="geometry" />
        </mxCell>
        <mxCell id="15b6Q68gZmkn_3KFMDJp-34" value="" style="triangle;html=1;direction=north;" vertex="1" parent="1">
          <mxGeometry x="3335" y="290" width="30" height="20" as="geometry" />
        </mxCell>
        <mxCell id="15b6Q68gZmkn_3KFMDJp-45" style="edgeStyle=orthogonalEdgeStyle;rounded=0;orthogonalLoop=1;jettySize=auto;html=1;startArrow=none;startFill=0;dashed=1;" edge="1" parent="1" source="15b6Q68gZmkn_3KFMDJp-44" target="t2tlnlJJV4CsSl2KhNDb-18">
          <mxGeometry relative="1" as="geometry" />
        </mxCell>
        <mxCell id="15b6Q68gZmkn_3KFMDJp-44" value="" style="triangle;html=1;direction=north;" vertex="1" parent="1">
          <mxGeometry x="4375" y="290" width="30" height="20" as="geometry" />
        </mxCell>
        <mxCell id="15b6Q68gZmkn_3KFMDJp-59" value="" style="edgeStyle=orthogonalEdgeStyle;rounded=0;orthogonalLoop=1;jettySize=auto;html=1;endArrow=none;startFill=0;" edge="1" parent="1" source="t2tlnlJJV4CsSl2KhNDb-3" target="15b6Q68gZmkn_3KFMDJp-58">
          <mxGeometry relative="1" as="geometry">
            <mxPoint x="3350" y="140" as="sourcePoint" />
            <mxPoint x="3350" y="-104" as="targetPoint" />
          </mxGeometry>
        </mxCell>
        <mxCell id="15b6Q68gZmkn_3KFMDJp-60" style="edgeStyle=orthogonalEdgeStyle;rounded=0;orthogonalLoop=1;jettySize=auto;html=1;endArrow=none;startFill=0;" edge="1" parent="1" source="15b6Q68gZmkn_3KFMDJp-58" target="15b6Q68gZmkn_3KFMDJp-11">
          <mxGeometry relative="1" as="geometry" />
        </mxCell>
        <mxCell id="15b6Q68gZmkn_3KFMDJp-58" value="" style="triangle;html=1;direction=north;" vertex="1" parent="1">
          <mxGeometry x="3335" y="60" width="30" height="20" as="geometry" />
        </mxCell>
        <mxCell id="15b6Q68gZmkn_3KFMDJp-66" style="edgeStyle=orthogonalEdgeStyle;rounded=0;orthogonalLoop=1;jettySize=auto;html=1;" edge="1" parent="1" source="15b6Q68gZmkn_3KFMDJp-61" target="15b6Q68gZmkn_3KFMDJp-20">
          <mxGeometry relative="1" as="geometry" />
        </mxCell>
        <mxCell id="15b6Q68gZmkn_3KFMDJp-61" value="" style="triangle;html=1;direction=north;" vertex="1" parent="1">
          <mxGeometry x="3335" y="-180" width="30" height="20" as="geometry" />
        </mxCell>
        <mxCell id="15b6Q68gZmkn_3KFMDJp-63" style="edgeStyle=orthogonalEdgeStyle;rounded=0;orthogonalLoop=1;jettySize=auto;html=1;endArrow=none;startFill=0;" edge="1" parent="1" source="15b6Q68gZmkn_3KFMDJp-16">
          <mxGeometry relative="1" as="geometry">
            <mxPoint x="3350" y="-160" as="targetPoint" />
            <Array as="points">
              <mxPoint x="3170" y="-160" />
              <mxPoint x="3350" y="-160" />
            </Array>
          </mxGeometry>
        </mxCell>
      </root>
    </mxGraphModel>
  </diagram>
</mxfile>
